<svg xmlns="http://www.w3.org/2000/svg" width="300" height="300" viewBox="0 0 300 300" version="1.1">
	<path d="M 130 19.538 C 96.122 24.894, 65.045 43.548, 44.419 70.908 C 36.495 81.419, 26.934 100.403, 23.473 112.500 C 14.407 144.183, 16.900 176.998, 30.570 205.900 C 49.569 246.073, 86.949 273.855, 131 280.545 C 170.283 286.511, 211.259 273.507, 240.554 245.777 C 271.697 216.297, 286.881 172.719, 280.545 131 C 275.289 96.390, 256.832 65.331, 229.092 44.419 C 218.581 36.495, 199.597 26.934, 187.500 23.473 C 168.825 18.129, 147.947 16.700, 130 19.538 M 127.500 41.942 C 104.077 47.416, 87.001 56.997, 70.958 73.664 C 55.194 90.043, 46.927 105.518, 41.932 128 C 39.326 139.729, 39.326 161.271, 41.932 173 C 46.927 195.482, 55.194 210.957, 70.958 227.336 C 87.532 244.554, 105.947 254.595, 129.922 259.484 C 141.928 261.933, 166.083 261.195, 178 258.017 C 198.345 252.591, 213.189 243.945, 228.567 228.567 C 244.093 213.042, 252.666 198.231, 258.129 177.500 C 260.203 169.629, 260.500 166.243, 260.500 150.500 C 260.500 134.757, 260.203 131.371, 258.129 123.500 C 252.666 102.769, 244.093 87.958, 228.567 72.433 C 213.196 57.061, 198.381 48.430, 178 42.975 C 165.961 39.752, 139.211 39.205, 127.500 41.942 M 170.776 110.479 C 160.574 113.288, 153.089 119.792, 147.738 130.500 C 143.885 138.210, 142.678 145.418, 143.184 157.694 C 143.579 167.293, 144.011 169.427, 146.741 175.261 C 152.792 188.192, 163.847 195.905, 177.591 196.788 C 186.878 197.384, 194.026 195.627, 199.588 191.381 C 202.024 189.522, 204.190 188, 204.400 188 C 204.611 188, 205.503 189.800, 206.383 192 L 207.984 196 214.492 196 L 221 196 221 172 L 221 148 201.500 148 L 182 148 182 157 L 182 166 189 166 C 195.165 166, 196 166.223, 196 167.865 C 196 168.891, 195.115 170.855, 194.034 172.230 C 187.876 180.058, 175.152 177.126, 172.176 167.193 C 170.696 162.253, 170.653 144.789, 172.109 139.547 C 172.712 137.373, 174.747 134.053, 176.631 132.169 C 179.699 129.101, 180.480 128.801, 184.126 129.290 C 189.109 129.958, 192.655 133.117, 194.196 138.259 L 195.358 142.137 202.929 141.428 C 220.290 139.803, 220.535 139.740, 220.167 136.990 C 219.985 135.621, 218.677 131.894, 217.262 128.709 C 213.617 120.502, 205.926 113.675, 197.339 111.023 C 189.781 108.688, 178.147 108.450, 170.776 110.479 M 78 153 L 78 196 108.500 196 L 139 196 139 185.500 L 139 175 122 175 L 105 175 105 142.500 L 105 110 91.500 110 L 78 110 78 153" stroke="none" fill="black" fill-rule="evenodd"/>
</svg>